HIERARCHY
ROOT Hips
{
	OFFSET 0.00000 0.00000 0.00000
	CHANNELS 6 Xposition Yposition Zposition Zrotation Yrotation Xrotation 
	JOINT RightUpLegDummy
	{
		OFFSET 0 0 0
		CHANNELS 3 Zrotation Yrotation Xrotation
		JOINT RightUpLeg
		{
			OFFSET -3.52197 -3.41223 0.04002
			CHANNELS 3 Zrotation Yrotation Xrotation
			JOINT RightLeg
			{
				OFFSET 0.00006 -17.42390 1.60435
				CHANNELS 3 Zrotation Yrotation Xrotation
				JOINT RightFoot
				{
					OFFSET 0.06153 -16.50078 -1.63901
					CHANNELS 3 Zrotation Yrotation Xrotation
					JOINT RightToes
					{
						OFFSET 0.00298 -1.73825 3.34613
						CHANNELS 3 Zrotation Yrotation Xrotation
						End Site
						{
							OFFSET 0.00480 -0.05416 3.85043
						}
					}
				}
			}
		}
	}
	JOINT SpineDummy
	{
		OFFSET 0 0 0
		CHANNELS 3 Zrotation Yrotation Xrotation
		JOINT Spine
		{
			OFFSET 0.00000 4.68130 0.00000
			CHANNELS 3 Zrotation Yrotation Xrotation
			JOINT Spine1
			{
				OFFSET -0.00000 10.10138 0.05002
				CHANNELS 3 Zrotation Yrotation Xrotation
				JOINT HEadDummy
				{
					OFFSET 0 0 0
					CHANNELS 3 Zrotation Yrotation Xrotation
					JOINT Head
					{
						OFFSET -0.00000 3.43865 0.00438
						CHANNELS 3 Zrotation Yrotation Xrotation
						End Site
						{
							OFFSET -0.11417 5.02924 0.98962
						}
					}
				}
				JOINT LeftShoulder1Dummy
				{
					OFFSET 0 0 0
					CHANNELS 3 Zrotation Yrotation Xrotation
					JOINT LeftShoulder1
					{
						OFFSET 3.53937 -0.14262 -0.08662
						CHANNELS 3 Zrotation Yrotation Xrotation
						JOINT LeftArm
						{
							OFFSET 4.04833 -0.00133 0.12681
							CHANNELS 3 Zrotation Yrotation Xrotation
							JOINT LeftForeArm
							{
								OFFSET 10.33880 -0.01036 -0.55515
								CHANNELS 3 Zrotation Yrotation Xrotation
								JOINT LeftHand
								{
									OFFSET 8.69677 0.07543 0.40060
									CHANNELS 3 Zrotation Yrotation Xrotation
									End Site
									{
										OFFSET 5.28377 -0.21905 0.59205
									}
								}
							}
						}
					}
				}
				JOINT RightShoulderDummy
				{
					OFFSET 0 0 0
					CHANNELS 3 Zrotation Yrotation Xrotation
					JOINT RightShoulder
					{
						OFFSET -3.53937 -0.14262 -0.08660
						CHANNELS 3 Zrotation Yrotation Xrotation
						JOINT RightArm
						{
							OFFSET -4.04833 -0.00133 0.12683
							CHANNELS 3 Zrotation Yrotation Xrotation
							JOINT RightForeArm
							{
								OFFSET -10.37987 -0.01039 -0.55511
								CHANNELS 3 Zrotation Yrotation Xrotation
								JOINT RightHand
								{
									OFFSET -8.67398 0.07538 0.40058
									CHANNELS 3 Zrotation Yrotation Xrotation
									End Site
									{
										OFFSET -5.24810 -0.21916 0.59204
									}
								}
							}
						}
					}
				}
			}
		}
	}
	JOINT LeftUpLegDummy
	{
		OFFSET 0 0 0
		CHANNELS 3 Zrotation Yrotation Xrotation
		JOINT LeftUpLeg
		{
			OFFSET 3.52197 -3.41223 0.04002
			CHANNELS 3 Zrotation Yrotation Xrotation
			JOINT LeftLeg
			{
				OFFSET -0.00012 -17.42399 1.60337
				CHANNELS 3 Zrotation Yrotation Xrotation
				JOINT LeftFoot
				{
					OFFSET -0.09972 -16.50070 -1.63802
					CHANNELS 3 Zrotation Yrotation Xrotation
					JOINT LeftToes
					{
						OFFSET -0.01575 -1.73823 3.34611
						CHANNELS 3 Zrotation Yrotation Xrotation
						End Site
						{
							OFFSET 0.03150 -0.01868 3.85031
						}
					}
				}
			}
		}
	}
}
MOTION
Frames: 8
Frame Time: 0.033333
-42.7720 39.8815 66.8725 -179.2080 4.2263 178.5930 0.0000 0.0000 0.0000 3.5051 -0.3657 0.2945 -1.2546 -3.6588 4.2153 -2.8416 0.1658 -3.4314 0.0000 -0.0000 -0.0000 0.0000 0.0000 0.0000 -0.6343 -0.3685 -0.7403 4.0385 -1.2386 3.6180 -0.0000 0.0000 -0.0000 2.3254 -0.3430 -5.7820 -0.0000 0.0000 -0.0000 -33.9157 -2.9922 2.5944 -45.0275 -17.5393 -17.5606 -9.7258 4.9751 53.3950 16.3020 -3.3422 -1.2028 -0.0000 0.0000 -0.0000 35.6141 5.3065 3.6694 39.0642 6.8609 -14.5335 11.5024 -0.9097 25.5442 -12.6986 1.7337 -0.7655 0.0000 0.0000 0.0000 1.6398 1.7725 1.1789 1.0398 3.3429 5.8343 2.2093 -0.0877 -5.6874 0.0000 0.0000 -0.0000
-42.7573 39.8815 66.8590 -179.2380 4.2371 178.5100 0.0000 0.0000 0.0000 3.4851 -0.4008 0.4110 -1.2354 -3.6121 4.2156 -2.8122 0.1639 -3.4460 0.0000 -0.0000 -0.0000 0.0000 0.0000 0.0000 -0.7628 -0.3604 -0.6938 4.2282 -1.2652 3.6360 -0.0000 0.0000 -0.0000 2.0858 -0.3476 -5.8067 -0.0000 0.0000 -0.0000 -34.1038 -2.9634 2.5959 -44.8173 -17.6323 -17.3427 -9.9174 4.9771 53.2609 16.1632 -3.5497 -1.2195 -0.0000 0.0000 -0.0000 35.3380 5.2619 3.6261 39.2876 6.9806 -14.6532 11.4496 -1.0624 25.6906 -12.6853 1.6803 -0.7592 0.0000 0.0000 0.0000 1.6013 1.7246 1.3293 1.1007 3.3903 5.7572 2.1896 -0.0864 -5.6625 0.0000 0.0000 -0.0000
-42.7319 39.8815 66.8374 -179.3000 4.2566 178.4390 0.0000 0.0000 0.0000 3.4565 -0.4276 0.5164 -1.2369 -3.5585 4.2287 -2.7661 0.1611 -3.4840 0.0000 -0.0000 -0.0000 0.0000 0.0000 0.0000 -0.8420 -0.3219 -0.6307 4.2732 -1.2273 3.5527 -0.0000 0.0000 -0.0000 1.9581 -0.2300 -5.6950 -0.0000 0.0000 -0.0000 -34.1934 -2.9708 2.6042 -44.5423 -17.8628 -16.9278 -10.2781 4.9819 52.9778 16.1340 -4.0229 -1.2801 -0.0000 0.0000 -0.0000 35.1687 5.2285 3.5973 39.4663 6.9746 -14.8209 11.3973 -1.1622 25.7411 -12.5789 1.6262 -0.7472 0.0000 0.0000 0.0000 1.5353 1.6530 1.5038 1.1796 3.4743 5.6314 2.1550 -0.0842 -5.6281 0.0000 0.0000 -0.0000
-42.7063 39.8815 66.8186 -179.3510 4.2656 178.4330 0.0000 0.0000 0.0000 3.4706 -0.3897 0.5518 -1.3002 -3.5809 4.2332 -2.7253 0.1586 -3.5199 0.0000 -0.0000 -0.0000 0.0000 0.0000 0.0000 -0.7320 -0.2799 -0.6572 4.0280 -1.1352 3.5315 -0.0000 0.0000 -0.0000 1.9905 -0.2152 -5.5577 -0.0000 0.0000 -0.0000 -34.0978 -3.0221 2.6185 -44.4983 -18.0564 -16.9530 -10.2691 4.9781 53.0959 16.3291 -4.2205 -1.3225 -0.0000 0.0000 -0.0000 35.1993 5.2211 3.5969 39.5356 6.8886 -14.8619 11.4135 -1.1144 25.5420 -12.4058 1.5456 -0.7286 0.0000 0.0000 0.0000 1.5123 1.6351 1.5916 1.1923 3.5026 5.5300 2.1435 -0.0834 -5.6068 0.0000 0.0000 -0.0000
-42.6832 39.8815 66.8115 -179.3780 4.2814 178.4580 0.0000 0.0000 0.0000 3.5052 -0.3367 0.5247 -1.3599 -3.6256 4.2574 -2.7270 0.1588 -3.5519 0.0000 -0.0000 -0.0000 0.0000 0.0000 0.0000 -0.5793 -0.2586 -0.7350 3.8078 -1.0775 3.6472 -0.0000 0.0000 -0.0000 1.8749 -0.5424 -5.6080 -0.0000 0.0000 -0.0000 -34.0464 -3.0433 2.6236 -44.7310 -17.9196 -17.4938 -9.7943 4.9632 53.7382 16.3548 -3.7956 -1.2675 -0.0000 0.0000 -0.0000 35.1304 5.2026 3.5832 39.6765 6.9088 -14.7389 11.4711 -0.9935 25.2910 -12.3226 1.2725 -0.6966 0.0000 0.0000 0.0000 1.5244 1.6498 1.5898 1.1772 3.4983 5.5070 2.1488 -0.0838 -5.6041 0.0000 0.0000 -0.0000
-42.6606 39.8787 66.8186 -179.4170 4.3291 178.4880 0.0000 0.0000 0.0000 3.5042 -0.3234 0.4252 -1.3669 -3.6051 4.3663 -2.7725 0.1619 -3.5989 0.0000 -0.0000 -0.0000 0.0000 0.0000 0.0000 -0.5357 -0.2580 -0.7213 3.7986 -1.0789 3.6819 -0.0000 0.0000 -0.0000 1.5582 -0.8922 -5.8145 -0.0000 0.0000 -0.0000 -34.1138 -3.0053 2.6128 -44.7276 -17.6738 -16.7717 -10.2301 4.9799 53.0597 16.3718 -3.0875 -1.1740 -0.0000 0.0000 -0.0000 34.9925 5.1885 3.5652 39.7835 6.9756 -14.5630 11.5067 -0.8563 25.2819 -12.2120 1.0980 -0.6732 0.0000 0.0000 0.0000 1.4930 1.6051 1.5282 1.2353 3.5734 5.5531 2.1122 -0.0814 -5.6087 0.0000 0.0000 -0.0000
-42.6370 39.8755 66.8305 -179.4900 4.3887 178.5270 0.0000 0.0000 0.0000 3.4750 -0.3109 0.2766 -1.3854 -3.5558 4.5316 -2.8049 0.1641 -3.6565 0.0000 -0.0000 -0.0000 0.0000 0.0000 0.0000 -0.5262 -0.2610 -0.6021 3.7879 -1.0741 3.4925 -0.0000 0.0000 -0.0000 1.3055 -0.8431 -5.8959 -0.0000 0.0000 -0.0000 -34.1398 -2.9808 2.6047 -44.7814 -17.3375 -16.2983 -10.5328 4.9969 52.4065 16.2820 -2.7783 -1.1258 -0.0000 0.0000 -0.0000 35.1188 5.2246 3.5913 39.5697 6.9327 -14.4774 11.5055 -0.7577 25.5319 -11.7195 1.6395 -0.6953 0.0000 0.0000 0.0000 1.3974 1.4889 1.4510 1.3614 3.7330 5.5920 2.0111 -0.0749 -5.5981 0.0000 0.0000 -0.0000
-42.6128 39.8734 66.8363 -179.5730 4.4197 178.5770 0.0000 0.0000 0.0000 3.4583 -0.2624 0.1380 -1.4562 -3.5562 4.6695 -2.8014 0.1640 -3.7093 0.0000 -0.0000 -0.0000 0.0000 0.0000 0.0000 -0.4348 -0.2451 -0.5218 3.6180 -1.0182 3.2607 -0.0000 0.0000 -0.0000 1.2099 -0.6357 -5.7471 -0.0000 0.0000 -0.0000 -34.0724 -3.0251 2.6180 -44.8606 -17.0573 -16.1203 -10.6813 5.0143 51.7932 16.3716 -2.7579 -1.1295 -0.0000 0.0000 -0.0000 35.4415 5.2785 3.6422 39.1637 6.8457 -14.5379 11.4909 -0.7852 25.7413 -11.0047 2.7061 -0.7459 0.0000 0.0000 0.0000 1.3136 1.4000 1.3892 1.4389 3.8473 5.5851 1.9054 -0.0681 -5.5706 0.0000 0.0000 -0.0000
